<?xml version="1.0" encoding="UTF-8"?>
<svg xmlns="http://www.w3.org/2000/svg" width="800" height="800" viewBox="0 0 800 800" fill="none"><g clip-path="url(#clip0_65_292)"><path d="M185.709 514.465L189.893 519.214L401.239 579.124L402.196 541.988L254.178 504.843L246.935 502.23L185.709 514.465Z" fill="#B7CA9D"/><path d="M614.523 514.465L398.678 586.513L398.036 541.988L546.052 504.843L552.503 497.583L614.523 514.465Z" fill="#B7CA9D"/><path d="M398.036 259.952L546.052 294.449L611.149 291.361L614.523 284.837L408.292 210.603L398.036 259.952Z" fill="#3C4929"/><path d="M254.179 504.843L185.709 514.465L183.804 507.356V292.323L185.709 284.837L247.578 289.438L254.179 294.457V504.843Z" fill="#759C3E"/><path d="M402.196 259.952L254.178 294.449L185.709 284.837L188.289 280.786L401.239 220.179L402.196 259.952Z" fill="#3C4929"/><path d="M399.824 100.041L154 224.122L154.117 575.253L399.824 699.268L403.485 693.71V107.252L399.824 100.041ZM327.941 557.151L185.709 514.465V284.837L327.941 242.166V557.151ZM546.052 504.843L614.523 514.465L618.359 507.678V291.361L614.523 284.837L546.052 294.457V504.843Z" fill="#4B612C"/><path d="M399.824 699.268L646.123 575.261L646.24 224.132L399.824 100.041V699.268ZM472.289 242.166L614.523 284.837V514.465L472.289 557.151V242.166Z" fill="#759C3E"/></g><defs><clipPath id="clip0_65_292"><rect width="492.24" height="600" fill="white" transform="translate(154 100)"/></clipPath></defs></svg>